<?xml version="1.0" encoding="UTF-8" standalone="no"?>
<!-- Created with Inkscape (http://www.inkscape.org/) -->

<svg
   width="151.22864mm"
   height="30.740429mm"
   viewBox="0 0 151.22864 30.740429"
   version="1.1"
   id="svg1"
   xml:space="preserve"
   xmlns="http://www.w3.org/2000/svg"
   xmlns:svg="http://www.w3.org/2000/svg"><defs
     id="defs1" /><g
     id="layer1"
     transform="translate(-42.414379,-98.306836)"><path
       style="fill:#010143;fill-opacity:1"
       d="m 106.6039,110.30581 c -0.92446,-0.69194 -0.42745,-2.0834 0.75558,-2.11541 0.77507,-0.021 1.32651,0.45969 1.32291,1.1531 -0.003,0.63683 -0.13266,0.85305 -0.67189,1.12312 -0.56725,0.28411 -0.85632,0.25106 -1.4066,-0.16081 z"
       id="path44" /><path
       style="fill:#010143;fill-opacity:1"
       d="m 181.57082,114.86634 v -6.98746 h 2.64637 c 2.92251,0 4.15038,0.18247 5.4637,0.81193 5.61436,2.69092 5.16539,10.42103 -0.73318,12.62332 -0.91782,0.34268 -1.47982,0.40497 -4.2179,0.46751 l -3.15899,0.0722 z m 6.15539,4.25593 c 2.69206,-0.76071 4.11058,-3.70882 2.93648,-6.10286 -0.88831,-1.81129 -2.59712,-2.70095 -5.18782,-2.70095 h -1.34023 v 4.53063 4.53064 h 1.34023 c 0.73713,0 1.75024,-0.11586 2.25134,-0.25746 z"
       id="path43" /><path
       style="fill:#010143;fill-opacity:1"
       d="m 170.39991,114.84909 v -6.97021 h 2.80589 c 3.24529,0 4.18101,0.21249 5.19827,1.18045 1.88081,1.78967 1.75987,4.71256 -0.26062,6.29848 -0.89816,0.70498 -1.61896,0.88317 -3.57734,0.88435 l -1.60238,9.8e-4 v 2.78808 2.78808 h -1.28191 -1.28191 z m 6.15316,-1.638 c 0.494,-0.47005 0.62264,-0.73207 0.62264,-1.26814 0,-1.33058 -0.98195,-1.973 -3.01576,-1.973 h -1.19622 v 1.9168 1.91681 h 1.48335 c 1.44277,0 1.50038,-0.0162 2.10599,-0.59247 z"
       id="path42" /><path
       style="fill:#010143;fill-opacity:1"
       d="m 144.70071,121.70313 c -0.0671,-0.0639 -0.12209,-1.74981 -0.12209,-3.74648 v -3.63032 h -0.73252 -0.73252 v -1.21979 -1.21979 h 0.73252 0.73252 v -1.56829 -1.5683 h 1.27478 1.27478 l 0.0529,1.52473 0.0529,1.52474 0.96143,0.0527 0.96143,0.0527 v 1.21068 1.21068 h -1.00721 -1.00721 v 3.74649 3.74648 h -1.15983 c -0.6379,0 -1.21476,-0.0523 -1.2819,-0.11617 z"
       id="path41" /><path
       style="fill:#010143;fill-opacity:1"
       d="m 123.35858,121.3401 c -0.81276,-1.90395 -5.07426,-13.30156 -4.99985,-13.37236 0.0514,-0.0489 0.64769,-0.0889 1.32518,-0.0889 1.0022,0 1.25569,0.0568 1.36001,0.30495 0.0705,0.16772 0.43728,1.1283 0.81501,2.13463 1.86505,4.96877 3.21276,8.33867 3.30124,8.25469 0.0541,-0.0513 1.00761,-2.45888 2.11903,-5.3502 l 2.02077,-5.25694 1.32135,-0.0512 c 0.72674,-0.0282 1.32135,0.008 1.32135,0.081 0,0.0727 -1.17155,3.21272 -2.60344,6.97785 l -2.60345,6.84567 h -1.58632 c -1.55886,0 -1.58987,-0.008 -1.79088,-0.4792 z"
       id="path40" /><path
       style="fill:#010143;fill-opacity:1"
       d="m 106.12138,116.85303 v -4.96628 h 1.28191 1.2819 v 4.96628 4.96627 h -1.2819 -1.28191 z"
       id="path39" /><path
       style="fill:#010143;fill-opacity:1"
       d="m 94.058261,121.47245 c 0.138187,-0.19076 1.006392,-1.31885 1.929344,-2.50685 l 1.678095,-2.16 -1.815442,-2.3784 c -0.998494,-1.30813 -1.815443,-2.41487 -1.815443,-2.45943 0,-0.0446 0.686041,-0.081 1.524535,-0.081 h 1.524535 l 1.06017,1.40902 c 0.583094,0.77496 1.11838,1.34347 1.189524,1.26335 0.07114,-0.0801 0.563994,-0.71417 1.095221,-1.40902 l 0.96587,-1.26335 h 1.53927 c 0.8466,0 1.53927,0.0417 1.53927,0.0926 0,0.0509 -0.82351,1.14937 -1.83002,2.44096 l -1.83002,2.34834 1.83002,2.41303 c 1.00651,1.32717 1.83002,2.46356 1.83002,2.52531 0,0.0618 -0.67987,0.10977 -1.51082,0.1067 l -1.51082,-0.006 -1.11138,-1.47455 -1.111372,-1.47455 -1.134275,1.48013 -1.134276,1.48013 H 95.38364 c -1.536177,0 -1.570182,-0.009 -1.325379,-0.34685 z"
       id="path38" /><path
       style="fill:#010143;fill-opacity:1"
       d="m 79.567567,121.69708 c 0,-0.0672 0.363961,-1.06702 0.808801,-2.22176 0.44484,-1.15474 1.524811,-3.98148 2.399934,-6.28165 0.875124,-2.30017 1.70188,-4.43698 1.837236,-4.74846 l 0.246102,-0.56633 1.4286,0.001 1.4286,0.001 1.045833,2.74311 c 2.05247,5.38342 3.950301,10.41663 4.073172,10.80242 0.12133,0.38095 0.08796,0.39207 -1.175883,0.39207 h -1.300757 l -0.330873,-0.74058 c -0.181981,-0.40732 -0.386643,-0.95623 -0.454806,-1.21979 l -0.123932,-0.4792 h -3.16215 -3.162151 l -0.44452,1.21979 -0.444521,1.21978 H 80.90191 c -0.733889,0 -1.334343,-0.055 -1.334343,-0.12222 z m 8.790227,-4.86634 c 0,-0.13388 -2.016193,-5.35226 -2.097989,-5.4301 -0.03211,-0.0305 -0.183482,0.28197 -0.336391,0.69449 -0.152909,0.41251 -0.615424,1.64246 -1.02781,2.7332 -0.412387,1.09075 -0.749794,2.01213 -0.749794,2.0475 0,0.0354 0.947697,0.0643 2.105992,0.0643 1.158296,0 2.105992,-0.0492 2.105992,-0.10942 z"
       id="path37" /><path
       style="fill:#2e8e61;fill-opacity:1;stroke-width:0.573032"
       d="m 48.409734,116.46259 c 0,-0.57094 0.711447,-3.1518 1.262105,-4.57842 0.940499,-2.43663 2.728545,-5.66032 4.021581,-7.25059 0.379703,-0.46698 0.550289,-0.49834 1.367878,-0.2515 1.736171,0.52417 3.057243,1.95673 3.638615,3.94565 0.436245,1.49243 0.290932,3.94781 -0.355421,6.00562 -0.140506,0.44735 -0.318198,0.47381 -0.325751,0.0485 -0.0031,-0.17339 -0.128148,-0.70809 -0.277931,-1.18822 -0.190156,-0.60956 -0.300384,-1.28562 -0.365287,-2.24044 -0.108267,-1.59276 -0.295265,-2.33355 -0.841808,-3.33478 -0.496596,-0.90973 -1.452158,-1.80634 -2.310718,-2.16814 -0.337963,-0.14243 -0.656747,-0.25896 -0.708407,-0.25896 -0.125815,0 -0.459597,0.69109 -0.459597,0.95158 0,0.12769 0.114188,0.26118 0.29708,0.34729 0.484566,0.22818 1.20801,0.93731 1.602676,1.57096 0.202872,0.32573 0.368859,0.6463 0.368859,0.71236 0,0.0661 -0.294339,-0.13768 -0.654088,-0.45278 -0.737886,-0.64631 -1.749876,-1.23802 -1.981109,-1.15835 -0.09601,0.033 -0.285752,0.55664 -0.504899,1.39317 -0.193095,0.73709 -0.536449,1.78485 -0.763006,2.32836 -0.456886,1.09605 -1.156175,3.2495 -1.442992,4.44368 -0.361513,1.50516 -0.257756,1.35415 -0.953032,1.38706 -0.613699,0.029 -0.614748,0.0286 -0.614748,-0.25206 z"
       id="path36" /><path
       style="fill:#2e8e61;fill-opacity:1;stroke-width:0.573032"
       d="m 44.088562,116.5416 c 0,-0.29476 0.522622,-2.45117 0.771345,-3.18267 1.1639,-3.42301 3.306604,-6.5711 6.054329,-8.89509 0.504609,-0.4268 1.156249,-0.92433 1.448091,-1.10565 0.529924,-0.32923 0.529617,-0.32873 -0.234034,0.388 -1.034834,0.97122 -1.852021,1.84189 -2.502413,2.66618 -2.353689,2.98302 -4.018432,6.61601 -4.518573,9.86094 l -0.07101,0.46074 H 44.56243 c -0.400579,0 -0.473866,-0.0298 -0.473866,-0.19245 z"
       id="path35" /><path
       style="fill:#2e8e61;fill-opacity:1;stroke-width:0.573032"
       d="m 42.422883,116.6498 c -0.0645,-0.0937 0.250165,-1.65626 0.529982,-2.63168 0.54793,-1.91005 1.855018,-4.25054 3.385629,-6.06236 0.949699,-1.12418 3.074057,-2.95843 3.42634,-2.95843 0.04061,0 -0.33332,0.38415 -0.830955,0.85369 -2.957671,2.79062 -4.89363,6.28599 -5.61137,10.1313 l -0.140314,0.75173 h -0.35066 c -0.192863,0 -0.376757,-0.0379 -0.408652,-0.0842 z"
       id="path34" /><path
       style="fill:#010143;fill-opacity:1"
       d="m 160.55184,121.66095 c -1.35841,-0.47966 -2.11055,-0.95747 -2.99046,-1.89975 -3.28324,-3.51596 -2.2606,-9.1392 2.0682,-11.37253 1.10742,-0.57135 1.23685,-0.59643 3.07888,-0.59643 1.82935,0 1.97719,0.0281 3.03998,0.57669 1.01493,0.52394 2.82012,2.02414 2.62562,2.18202 -0.0441,0.0358 -0.55321,0.30882 -1.13141,0.60675 l -1.05126,0.5417 -0.50534,-0.44639 c -0.74537,-0.65841 -1.44007,-0.95221 -2.49459,-1.05499 -1.30526,-0.12722 -2.30237,0.175 -3.28058,0.99432 -1.17593,0.98494 -1.67402,2.04468 -1.678,3.57012 -0.005,2.0474 0.94796,3.57245 2.73585,4.37671 1.55588,0.6999 3.15578,0.50047 4.45153,-0.5549 l 0.765,-0.62308 1.10011,0.57548 c 0.60506,0.31652 1.10011,0.62507 1.10011,0.68567 0,0.30142 -1.97015,1.806 -2.89014,2.20716 -1.42315,0.62057 -3.55838,0.72053 -4.9435,0.23145 z"
       id="path33" /><path
       style="fill:#010143;fill-opacity:1"
       d="m 135.21796,121.75364 c -2.10574,-0.71604 -3.51628,-2.73173 -3.50134,-5.00347 0.0307,-4.66427 5.67087,-6.8784 8.87489,-3.48395 0.92569,0.9807 1.42545,2.19365 1.4242,3.45661 l -9.1e-4,0.91484 h -3.75416 c -4.08342,0 -4.13548,0.0145 -3.37173,0.93838 0.99347,1.20179 2.54591,1.30131 3.76988,0.24167 0.37391,-0.3237 0.46778,-0.33033 1.54163,-0.10891 0.62892,0.12967 1.17412,0.32359 1.21156,0.43092 0.14772,0.42347 -1.16393,1.72429 -2.30579,2.28675 -1.28112,0.63105 -2.65467,0.74663 -3.88823,0.32716 z m 4.0499,-6.22754 c 0,-0.20295 -0.31994,-0.67344 -0.71098,-1.04553 -0.63782,-0.60691 -0.80595,-0.67652 -1.63411,-0.67652 -0.72871,0 -1.04321,0.0961 -1.49316,0.4564 -0.49436,0.39581 -1.10626,1.24701 -1.10626,1.53888 0,0.0527 1.11252,0.0958 2.47226,0.0958 2.39594,0 2.47225,-0.0114 2.47225,-0.36901 z"
       id="path32" /><path
       style="fill:#010143;fill-opacity:1"
       d="m 113.24464,121.84084 c -0.88415,-0.17701 -2.23952,-0.95003 -2.61061,-1.48893 -0.16537,-0.24016 -0.30067,-0.46896 -0.30067,-0.50845 0,-0.0395 0.42313,-0.24501 0.94029,-0.4567 l 0.94029,-0.3849 0.87001,0.45057 c 1.0052,0.52058 1.44764,0.5564 2.21416,0.17922 0.43595,-0.21451 0.53952,-0.36848 0.49451,-0.73509 -0.0654,-0.53298 -0.39946,-0.71964 -2.25449,-1.25984 -2.10992,-0.61442 -3.02164,-1.51387 -3.02164,-2.98098 0,-2.21971 2.62926,-3.6302 5.35927,-2.87502 1.0493,0.29026 2.4668,1.32658 2.25679,1.64992 -0.0593,0.0914 -0.474,0.37029 -0.92144,0.6198 l -0.81353,0.45366 -0.67698,-0.43715 c -1.17283,-0.75733 -2.73186,-0.45888 -2.73186,0.52298 0,0.48771 0.0808,0.54178 1.56828,1.04968 1.92838,0.65844 2.85053,1.18688 3.30284,1.89268 0.41145,0.64204 0.45492,1.84411 0.0908,2.51005 -0.76578,1.4005 -2.80373,2.17934 -4.706,1.7985 z"
       id="path31" /><path
       style="fill:#2e8e61;fill-opacity:1;stroke-width:0.573032"
       d="m 56.980885,121.00223 c 0.03106,-0.08 0.198542,-0.47287 0.372168,-0.87298 0.173629,-0.40011 0.4011,-1.05485 0.505495,-1.45497 0.104394,-0.40011 0.445109,-1.18578 0.757142,-1.74596 1.362213,-2.44544 1.928212,-4.4889 1.934385,-6.98383 0.0031,-1.2613 -0.03566,-1.63627 -0.240736,-2.32795 -0.751372,-2.53417 -2.402055,-4.00746 -4.798107,-4.28244 l -0.946682,-0.10865 0.195928,-0.30214 c 0.286826,-0.44232 0.697214,-0.58187 1.697438,-0.57716 1.614341,0.008 2.800439,0.46561 3.889152,1.50184 0.794052,0.75579 1.317793,1.65269 1.690851,2.89557 0.214378,0.71423 0.247675,1.05798 0.248991,2.57045 0.0015,1.75438 -0.09122,2.41211 -0.553925,3.9284 -0.737232,2.41591 -2.095769,4.89535 -3.667158,6.69285 -0.658565,0.75332 -1.151296,1.23789 -1.084942,1.06697 z"
       id="path30" /><path
       style="fill:#2e8e61;fill-opacity:1;stroke-width:0.573032"
       d="m 54.432366,124.72128 c -0.22281,-0.083 -0.40506,-0.17895 -0.404999,-0.21325 5.9e-5,-0.0343 0.245191,-0.18598 0.544735,-0.33703 2.660704,-1.3418 5.566158,-4.35887 7.301659,-7.58216 1.591261,-2.95541 2.235286,-5.28857 2.235665,-8.09931 1.9e-4,-1.42105 -0.03178,-1.7092 -0.285198,-2.57045 -0.602294,-2.04691 -1.653922,-3.37291 -3.222525,-4.06332 -1.314614,-0.5786 -2.72936,-0.6667 -4.510995,-0.28091 -0.178776,0.0387 -0.235446,0.0217 -0.182677,-0.055 0.20881,-0.30335 -0.188401,-0.0447 -0.760474,0.49509 -2.377972,2.24405 -4.489472,5.1522 -5.907972,8.137 -0.671046,1.41201 -1.33776,3.30142 -1.706634,4.83645 -0.173067,0.72021 -0.339849,1.41002 -0.370626,1.5329 -0.05012,0.20015 -0.109079,0.22037 -0.56559,0.194 l -0.509631,-0.0294 0.03554,-0.38799 c 0.118894,-1.29786 1.01232,-4.07305 1.901576,-5.90674 1.277916,-2.63514 3.204761,-5.28424 5.176525,-7.11689 1.143419,-1.06274 3.05693,-2.48142 3.254916,-2.41321 0.07449,0.0257 0.567299,-0.0858 1.095124,-0.2478 0.704232,-0.2161 1.232988,-0.30748 1.986442,-0.34331 1.863414,-0.0886 3.125539,0.32376 4.312571,1.40901 1.721915,1.57426 2.474115,3.99461 2.185504,7.03225 -0.349557,3.6791 -1.637916,6.9886 -3.954079,10.15714 -1.72298,2.35704 -3.69019,4.21606 -5.784393,5.46624 -0.976349,0.58286 -1.208531,0.63102 -1.864468,0.38673 z"
       id="path29" /><path
       style="fill:#2e8e61;fill-opacity:1;stroke-width:0.573032"
       d="m 57.214447,125.64505 c -0.2969,-0.10809 -0.552943,-0.20829 -0.568984,-0.22269 -0.01604,-0.0144 0.494251,-0.36827 1.133981,-0.78639 1.460107,-0.95429 3.945071,-3.16732 5.02239,-4.47277 2.215868,-2.6851 3.759237,-5.71682 4.732979,-9.29723 0.442528,-1.62716 0.53166,-2.30117 0.53411,-4.03894 0.0031,-2.19925 -0.273897,-3.41109 -1.116573,-4.88485 -1.490285,-2.606394 -4.544055,-3.514224 -7.908623,-2.351094 -0.530955,0.18355 -1.062599,0.36703 -1.181431,0.40773 -0.147466,0.0505 -0.11317,-0.006 0.10803,-0.1777 0.489501,-0.38014 2.39025,-1.18661 3.209064,-1.36158 0.96198,-0.20555 2.827047,-0.20327 3.751922,0.005 1.510165,0.33938 3.665255,1.45632 4.155596,2.153754 0.293334,0.41721 0.853628,1.92623 1.023653,2.75696 0.54279,2.65201 -0.139461,6.94014 -1.66349,10.45545 -1.767852,4.07772 -4.985371,8.19142 -8.31616,10.63244 -0.532451,0.39022 -2.217499,1.39436 -2.322629,1.3841 -0.02971,-0.003 -0.296934,-0.0937 -0.593835,-0.20177 z"
       id="path28" /><path
       style="fill:#2e8e61;fill-opacity:1;stroke-width:0.573032"
       d="m 60.049195,126.59233 c -0.339365,-0.11369 -0.629956,-0.23663 -0.645758,-0.27317 -0.01581,-0.0366 0.384481,-0.31415 0.889518,-0.61689 2.466371,-1.47842 4.84957,-3.76195 6.961815,-6.67068 2.931968,-4.03755 4.75105,-8.56318 5.251089,-13.06401 0.06816,-0.61351 0.135818,-1.12685 0.150352,-1.14076 0.0514,-0.0491 1.054252,1.93915 1.311542,2.60037 0.14354,0.36889 0.260981,0.84132 0.260981,1.04985 0,0.39188 -0.703868,2.5685 -1.278947,3.95496 -1.999134,4.81974 -5.892613,9.98311 -9.558912,12.67661 -1.075862,0.79039 -2.232527,1.52988 -2.560192,1.63679 -0.09045,0.0295 -0.442124,-0.0394 -0.781488,-0.15307 z"
       id="path27" /><path
       style="fill:#2e8e61;fill-opacity:1;stroke-width:0.573032"
       d="m 63.182738,127.62475 c -0.401057,-0.13348 -0.727944,-0.27047 -0.726412,-0.30443 0.0015,-0.034 0.253544,-0.2145 0.560026,-0.40123 1.916436,-1.16757 4.77738,-3.64622 6.262228,-5.42544 1.153865,-1.38262 2.41944,-3.11551 3.298764,-4.51683 0.423974,-0.67565 2.198343,-3.91666 2.412569,-4.40672 l 0.145493,-0.33284 0.08501,0.28434 c 0.163666,0.54741 0.309397,3.02496 0.193965,3.29756 -0.06024,0.14228 -0.406823,0.72207 -0.770184,1.28842 -2.616691,4.07859 -6.071237,7.75976 -9.319426,9.93077 -1.31553,0.87926 -1.286235,0.87124 -2.142033,0.5864 z"
       id="path26" /><path
       style="fill:#2e8e61;fill-opacity:1;stroke-width:0.573032"
       d="m 66.666683,128.79709 c -0.386204,-0.13334 -0.741834,-0.27719 -0.790287,-0.31968 -0.04846,-0.0425 0.242518,-0.28908 0.646603,-0.54799 2.507083,-1.60633 5.090243,-4.0259 7.675276,-7.18922 0.458189,-0.56068 0.848791,-0.97708 0.868007,-0.92532 0.05505,0.1483 -0.373385,1.81389 -0.74955,2.91389 l -0.342561,1.00173 -1.150524,1.13357 c -1.240054,1.22175 -2.576946,2.34627 -3.925624,3.30198 -0.730503,0.51764 -1.386275,0.90331 -1.496778,0.88023 -0.0178,-0.004 -0.348357,-0.11585 -0.734562,-0.24919 z"
       id="path1" /></g></svg>
